<?xml version="1.0" standalone="no"?>
<!DOCTYPE svg PUBLIC "-//W3C//DTD SVG 20010904//EN"
 "http://www.w3.org/TR/2001/REC-SVG-20010904/DTD/svg10.dtd">
<svg version="1.0" xmlns="http://www.w3.org/2000/svg"
 width="200.000000pt" height="201.000000pt" viewBox="0 0 200.000000 201.000000"
 preserveAspectRatio="xMidYMid meet">

<g transform="translate(0.000000,201.000000) scale(0.100000,-0.100000)"
fill="#000000" stroke="none">
<path d="M897 1999 c-224 -24 -435 -126 -598 -288 -342 -342 -390 -862 -117
-1258 356 -518 1076 -586 1519 -144 254 254 352 617 258 961 -21 78 -94 237
-128 280 l-20 25 -122 -122 -122 -122 25 -58 c43 -95 52 -142 52 -263 0 -191
-52 -319 -189 -456 -136 -138 -303 -202 -490 -190 -173 11 -297 67 -420 191
-136 135 -189 263 -189 455 0 192 53 320 189 455 191 192 452 245 704 144 l75
-30 118 118 c65 65 117 122 115 128 -2 5 -32 27 -68 48 -171 100 -394 148
-592 126z"/>
<path d="M1221 1316 l-64 -65 -41 22 c-62 32 -174 30 -241 -5 -60 -31 -105
-77 -136 -138 -34 -66 -33 -176 3 -245 31 -60 77 -105 138 -136 35 -18 61 -23
120 -23 59 0 85 5 120 23 61 31 107 76 138 136 35 67 37 179 5 241 l-22 41 65
64 65 64 -38 5 c-35 5 -38 8 -43 43 l-5 38 -64 -65z"/>
</g>
</svg>
